{
	"patcher" : 	{
		"fileversion" : 1,
		"appversion" : 		{
			"major" : 8,
			"minor" : 5,
			"revision" : 3,
			"architecture" : "x64",
			"modernui" : 1
		}
,
		"classnamespace" : "box",
		"rect" : [ 34.0, 71.0, 1207.0, 1056.0 ],
		"bglocked" : 0,
		"openinpresentation" : 0,
		"default_fontsize" : 12.0,
		"default_fontface" : 0,
		"default_fontname" : "Arial",
		"gridonopen" : 1,
		"gridsize" : [ 15.0, 15.0 ],
		"gridsnaponopen" : 1,
		"objectsnaponopen" : 1,
		"statusbarvisible" : 2,
		"toolbarvisible" : 1,
		"lefttoolbarpinned" : 0,
		"toptoolbarpinned" : 0,
		"righttoolbarpinned" : 0,
		"bottomtoolbarpinned" : 0,
		"toolbars_unpinned_last_save" : 0,
		"tallnewobj" : 0,
		"boxanimatetime" : 200,
		"enablehscroll" : 1,
		"enablevscroll" : 1,
		"devicewidth" : 0.0,
		"description" : "",
		"digest" : "",
		"tags" : "",
		"style" : "",
		"subpatcher_template" : "",
		"assistshowspatchername" : 0,
		"boxes" : [ 			{
				"box" : 				{
					"id" : "obj-47",
					"maxclass" : "message",
					"numinlets" : 2,
					"numoutlets" : 1,
					"outlettype" : [ "" ],
					"patching_rect" : [ 598.000017821788788, 450.000013411045074, 135.0, 22.0 ],
					"text" : "texture lcd_benadryl vid"
				}

			}
, 			{
				"box" : 				{
					"id" : "obj-45",
					"maxclass" : "message",
					"numinlets" : 2,
					"numoutlets" : 1,
					"outlettype" : [ "" ],
					"patching_rect" : [ 490.666681289672852, 436.666679680347443, 64.0, 22.0 ],
					"text" : "texture vid"
				}

			}
, 			{
				"box" : 				{
					"id" : "obj-42",
					"maxclass" : "newobj",
					"numinlets" : 1,
					"numoutlets" : 2,
					"outlettype" : [ "jit_gl_texture", "" ],
					"patching_rect" : [ 439.999998033046722, 684.666687071323395, 134.0, 22.0 ],
					"text" : "jit.gl.texture @name vid"
				}

			}
, 			{
				"box" : 				{
					"annotation" : "## The VIZZIE video player/looper ##",
					"bgmode" : 1,
					"border" : 0,
					"clickthrough" : 0,
					"enablehscroll" : 0,
					"enablevscroll" : 0,
					"id" : "obj-41",
					"lockeddragscroll" : 0,
					"lockedsize" : 0,
					"maxclass" : "bpatcher",
					"name" : "vz.playr.maxpat",
					"numinlets" : 7,
					"numoutlets" : 2,
					"offset" : [ 0.0, 0.0 ],
					"outlettype" : [ "jit_gl_texture", "" ],
					"patching_rect" : [ 439.999998033046722, 503.333331704139709, 348.0, 158.0 ],
					"prototypename" : "pixl",
					"varname" : "playr",
					"viewvisibility" : 1
				}

			}
, 			{
				"box" : 				{
					"id" : "obj-40",
					"maxclass" : "message",
					"numinlets" : 2,
					"numoutlets" : 1,
					"outlettype" : [ "" ],
					"patching_rect" : [ 345.333343625068665, 436.666679680347443, 117.0, 22.0 ],
					"text" : "texture lcd_benadryl"
				}

			}
, 			{
				"box" : 				{
					"id" : "obj-38",
					"maxclass" : "comment",
					"numinlets" : 1,
					"numoutlets" : 0,
					"patching_rect" : [ 250.000007450580597, 623.333351910114288, 150.0, 20.0 ],
					"text" : "jit.pwindow"
				}

			}
, 			{
				"box" : 				{
					"id" : "obj-26",
					"maxclass" : "newobj",
					"numinlets" : 1,
					"numoutlets" : 2,
					"outlettype" : [ "jit_gl_texture", "" ],
					"patching_rect" : [ 65.333335280418396, 684.666687071323395, 187.0, 22.0 ],
					"text" : "jit.gl.texture @name lcd_benadryl"
				}

			}
, 			{
				"box" : 				{
					"id" : "obj-18",
					"maxclass" : "jit.pwindow",
					"numinlets" : 1,
					"numoutlets" : 2,
					"outlettype" : [ "jit_matrix", "" ],
					"patching_rect" : [ 141.666662812232971, 593.333351016044617, 80.0, 60.0 ],
					"sync" : 1
				}

			}
, 			{
				"box" : 				{
					"id" : "obj-17",
					"maxclass" : "newobj",
					"numinlets" : 1,
					"numoutlets" : 2,
					"outlettype" : [ "jit_matrix", "" ],
					"patching_rect" : [ 79.333330988883972, 542.666682839393616, 53.0, 22.0 ],
					"text" : "jit.matrix"
				}

			}
, 			{
				"box" : 				{
					"id" : "obj-13",
					"maxclass" : "message",
					"numinlets" : 2,
					"numoutlets" : 1,
					"outlettype" : [ "" ],
					"patching_rect" : [ 79.333330988883972, 496.666681468486786, 198.0, 22.0 ],
					"text" : "importmovie lcd_benadryl.jpg, bang"
				}

			}
, 			{
				"box" : 				{
					"id" : "obj-53",
					"linecount" : 3,
					"maxclass" : "comment",
					"numinlets" : 1,
					"numoutlets" : 0,
					"patching_rect" : [ 764.666689455509186, 194.0, 132.0, 47.0 ],
					"text" : "change ambient from\nblack to white light\nto brighten scene"
				}

			}
, 			{
				"box" : 				{
					"id" : "obj-31",
					"maxclass" : "newobj",
					"numinlets" : 1,
					"numoutlets" : 1,
					"outlettype" : [ "" ],
					"patching_rect" : [ 782.000023305416107, 341.333343505859375, 75.0, 22.0 ],
					"text" : "jit.gl.light ctd"
				}

			}
, 			{
				"box" : 				{
					"id" : "obj-16",
					"linecount" : 4,
					"maxclass" : "comment",
					"numinlets" : 1,
					"numoutlets" : 0,
					"patching_rect" : [ 657.066663444042206, 88.333333492279053, 229.0, 60.0 ],
					"text" : "OpenGL (Open Graphics Library) is a cross-language, cross-platform application programming interface (API) for rendering 2D and 3D vector graphics"
				}

			}
, 			{
				"box" : 				{
					"id" : "obj-27",
					"maxclass" : "message",
					"numinlets" : 2,
					"numoutlets" : 1,
					"outlettype" : [ "" ],
					"patching_rect" : [ 532.00001585483551, 291.333342015743256, 101.0, 22.0 ],
					"text" : "poly_mode $1 $1"
				}

			}
, 			{
				"box" : 				{
					"id" : "obj-24",
					"maxclass" : "comment",
					"numinlets" : 1,
					"numoutlets" : 0,
					"patching_rect" : [ 563.666682124137878, 243.000005453824997, 150.0, 20.0 ],
					"text" : "radiogroup @size 3"
				}

			}
, 			{
				"box" : 				{
					"disabled" : [ 0, 0, 0 ],
					"id" : "obj-22",
					"itemtype" : 0,
					"maxclass" : "radiogroup",
					"numinlets" : 1,
					"numoutlets" : 1,
					"outlettype" : [ "" ],
					"parameter_enable" : 0,
					"patching_rect" : [ 532.00001585483551, 228.000005453824997, 18.0, 50.0 ],
					"size" : 3,
					"value" : 0
				}

			}
, 			{
				"box" : 				{
					"id" : "obj-34",
					"maxclass" : "comment",
					"numinlets" : 1,
					"numoutlets" : 0,
					"patching_rect" : [ 418.666678249835968, 365.333343982696533, 150.0, 20.0 ],
					"text" : "smoothing effect"
				}

			}
, 			{
				"box" : 				{
					"id" : "obj-30",
					"linecount" : 3,
					"maxclass" : "comment",
					"numinlets" : 1,
					"numoutlets" : 0,
					"patching_rect" : [ 628.000017821788788, 365.333343982696533, 75.999997794628143, 47.0 ],
					"text" : "dots, polygons, shader"
				}

			}
, 			{
				"box" : 				{
					"id" : "obj-25",
					"linecount" : 2,
					"maxclass" : "comment",
					"numinlets" : 1,
					"numoutlets" : 0,
					"patching_rect" : [ 526.000011265277863, 365.333343982696533, 75.333331108093262, 33.0 ],
					"text" : "polygon count"
				}

			}
, 			{
				"box" : 				{
					"id" : "obj-23",
					"maxclass" : "comment",
					"numinlets" : 1,
					"numoutlets" : 0,
					"patching_rect" : [ 225.000008702278137, 365.333343982696533, 150.0, 20.0 ],
					"text" : "lighting on"
				}

			}
, 			{
				"box" : 				{
					"id" : "obj-21",
					"maxclass" : "comment",
					"numinlets" : 1,
					"numoutlets" : 0,
					"patching_rect" : [ 322.000008702278137, 365.333343982696533, 81.266658008098602, 20.0 ],
					"text" : "defalt shape"
				}

			}
, 			{
				"box" : 				{
					"id" : "obj-37",
					"linecount" : 4,
					"maxclass" : "comment",
					"numinlets" : 1,
					"numoutlets" : 0,
					"patching_rect" : [ 37.66667103767395, 361.866668999195099, 145.999999940395355, 74.0 ],
					"text" : "xyz handles\nclick-drag = rotate\nalt/option-drag = zoom\nctr/command = move XY\n"
				}

			}
, 			{
				"box" : 				{
					"floatoutput" : 1,
					"id" : "obj-20",
					"maxclass" : "slider",
					"numinlets" : 1,
					"numoutlets" : 1,
					"outlettype" : [ "" ],
					"parameter_enable" : 0,
					"patching_rect" : [ 380.000011324882507, 223.333339989185333, 17.333333253860474, 59.333330929279327 ],
					"size" : 2.0
				}

			}
, 			{
				"box" : 				{
					"id" : "obj-19",
					"maxclass" : "message",
					"numinlets" : 2,
					"numoutlets" : 1,
					"outlettype" : [ "" ],
					"patching_rect" : [ 380.000011324882507, 300.000008940696716, 71.0, 22.0 ],
					"text" : "color $1 1 1"
				}

			}
, 			{
				"box" : 				{
					"id" : "obj-14",
					"maxclass" : "message",
					"numinlets" : 2,
					"numoutlets" : 1,
					"outlettype" : [ "" ],
					"patching_rect" : [ 306.000009119510651, 296.000008821487427, 53.0, 22.0 ],
					"text" : "scale $1"
				}

			}
, 			{
				"box" : 				{
					"floatoutput" : 1,
					"id" : "obj-12",
					"maxclass" : "slider",
					"numinlets" : 1,
					"numoutlets" : 1,
					"outlettype" : [ "" ],
					"parameter_enable" : 0,
					"patching_rect" : [ 306.000009119510651, 223.333339989185333, 17.333333253860474, 59.333330929279327 ],
					"size" : 2.0
				}

			}
, 			{
				"box" : 				{
					"id" : "obj-11",
					"maxclass" : "message",
					"numinlets" : 2,
					"numoutlets" : 1,
					"outlettype" : [ "" ],
					"patching_rect" : [ 25.3333340883255, 277.333341598510742, 35.0, 22.0 ],
					"text" : "reset"
				}

			}
, 			{
				"box" : 				{
					"id" : "obj-7",
					"maxclass" : "newobj",
					"numinlets" : 1,
					"numoutlets" : 2,
					"outlettype" : [ "", "" ],
					"patching_rect" : [ 96.666669547557831, 296.000008821487427, 155.0, 22.0 ],
					"text" : "jit.gl.handle @auto_rotate 1"
				}

			}
, 			{
				"box" : 				{
					"id" : "obj-5",
					"maxclass" : "newobj",
					"numinlets" : 1,
					"numoutlets" : 2,
					"outlettype" : [ "jit_matrix", "" ],
					"patching_rect" : [ 103.333336412906647, 330.66667652130127, 579.0, 22.0 ],
					"text" : "jit.gl.gridshape ctd @lighting_enable 1 @shape sphere @smooth_shading 0.5 @dim 40 40 @polymode 1 1"
				}

			}
, 			{
				"box" : 				{
					"id" : "obj-4",
					"maxclass" : "toggle",
					"numinlets" : 1,
					"numoutlets" : 1,
					"outlettype" : [ "int" ],
					"parameter_enable" : 0,
					"patching_rect" : [ 72.666668832302094, 166.666671633720398, 24.0, 24.0 ]
				}

			}
, 			{
				"box" : 				{
					"id" : "obj-6",
					"linecount" : 3,
					"maxclass" : "comment",
					"numinlets" : 1,
					"numoutlets" : 0,
					"patching_rect" : [ 509.333343982696533, 137.833337843418121, 116.0, 47.0 ],
					"text" : "change bg color\n3d graphics RGBA\n2d graphics ARGB"
				}

			}
, 			{
				"box" : 				{
					"id" : "obj-9",
					"linecount" : 3,
					"maxclass" : "comment",
					"numinlets" : 1,
					"numoutlets" : 0,
					"patching_rect" : [ 340.666676819324493, 142.500004649162292, 150.0, 47.0 ],
					"text" : "enables window w/o need to toggle - can still toggle off"
				}

			}
, 			{
				"box" : 				{
					"id" : "obj-3",
					"maxclass" : "comment",
					"numinlets" : 1,
					"numoutlets" : 0,
					"patching_rect" : [ 147.0, 156.000004649162292, 114.666665613651276, 20.0 ],
					"text" : "unique world name"
				}

			}
, 			{
				"box" : 				{
					"id" : "obj-1",
					"maxclass" : "newobj",
					"numinlets" : 1,
					"numoutlets" : 3,
					"outlettype" : [ "jit_matrix", "bang", "" ],
					"patching_rect" : [ 147.0, 194.0, 386.0, 22.0 ],
					"text" : "jit.world ctd @floating 1 @size 420 320 @enable 1 @erase_color 1 1 1"
				}

			}
, 			{
				"box" : 				{
					"attr" : "tex_map",
					"id" : "obj-8",
					"maxclass" : "attrui",
					"numinlets" : 1,
					"numoutlets" : 1,
					"outlettype" : [ "" ],
					"parameter_enable" : 0,
					"patching_rect" : [ 79.333330988883972, 267.333342673255913, 150.0, 22.0 ]
				}

			}
, 			{
				"box" : 				{
					"attr" : "erase_color",
					"id" : "obj-28",
					"maxclass" : "attrui",
					"numinlets" : 1,
					"numoutlets" : 1,
					"outlettype" : [ "" ],
					"parameter_enable" : 0,
					"patching_rect" : [ 141.666662812232971, 119.999998688697815, 150.0, 22.0 ]
				}

			}
, 			{
				"box" : 				{
					"attr" : "position",
					"id" : "obj-29",
					"maxclass" : "attrui",
					"numinlets" : 1,
					"numoutlets" : 1,
					"outlettype" : [ "" ],
					"parameter_enable" : 0,
					"patching_rect" : [ 141.666662812232971, 83.999997615814209, 261.600003898143768, 22.0 ]
				}

			}
, 			{
				"box" : 				{
					"attr" : "type",
					"id" : "obj-32",
					"maxclass" : "attrui",
					"numinlets" : 1,
					"numoutlets" : 1,
					"outlettype" : [ "" ],
					"parameter_enable" : 0,
					"patching_rect" : [ 782.000023000000056, 311.333344000000011, 150.0, 22.0 ]
				}

			}
, 			{
				"box" : 				{
					"attr" : "diffuse",
					"id" : "obj-33",
					"maxclass" : "attrui",
					"numinlets" : 1,
					"numoutlets" : 1,
					"outlettype" : [ "" ],
					"parameter_enable" : 0,
					"patching_rect" : [ 764.666689455509186, 281.333343105930339, 150.0, 22.0 ]
				}

			}
, 			{
				"box" : 				{
					"attr" : "ambient",
					"id" : "obj-35",
					"maxclass" : "attrui",
					"numinlets" : 1,
					"numoutlets" : 1,
					"outlettype" : [ "" ],
					"parameter_enable" : 0,
					"patching_rect" : [ 761.666684500930842, 248.00000877918626, 150.0, 22.0 ]
				}

			}
, 			{
				"box" : 				{
					"attr" : "flip",
					"id" : "obj-2",
					"maxclass" : "attrui",
					"numinlets" : 1,
					"numoutlets" : 1,
					"outlettype" : [ "" ],
					"parameter_enable" : 0,
					"patching_rect" : [ 224.666662812232971, 654.666687000000024, 150.0, 22.0 ]
				}

			}
 ],
		"lines" : [ 			{
				"patchline" : 				{
					"destination" : [ "obj-7", 0 ],
					"source" : [ "obj-11", 0 ]
				}

			}
, 			{
				"patchline" : 				{
					"destination" : [ "obj-14", 0 ],
					"source" : [ "obj-12", 0 ]
				}

			}
, 			{
				"patchline" : 				{
					"destination" : [ "obj-17", 0 ],
					"source" : [ "obj-13", 0 ]
				}

			}
, 			{
				"patchline" : 				{
					"destination" : [ "obj-5", 0 ],
					"source" : [ "obj-14", 0 ]
				}

			}
, 			{
				"patchline" : 				{
					"destination" : [ "obj-18", 0 ],
					"order" : 0,
					"source" : [ "obj-17", 0 ]
				}

			}
, 			{
				"patchline" : 				{
					"destination" : [ "obj-26", 0 ],
					"order" : 1,
					"source" : [ "obj-17", 0 ]
				}

			}
, 			{
				"patchline" : 				{
					"destination" : [ "obj-5", 0 ],
					"source" : [ "obj-19", 0 ]
				}

			}
, 			{
				"patchline" : 				{
					"destination" : [ "obj-26", 0 ],
					"source" : [ "obj-2", 0 ]
				}

			}
, 			{
				"patchline" : 				{
					"destination" : [ "obj-19", 0 ],
					"source" : [ "obj-20", 0 ]
				}

			}
, 			{
				"patchline" : 				{
					"destination" : [ "obj-27", 0 ],
					"source" : [ "obj-22", 0 ]
				}

			}
, 			{
				"patchline" : 				{
					"destination" : [ "obj-5", 0 ],
					"source" : [ "obj-27", 0 ]
				}

			}
, 			{
				"patchline" : 				{
					"destination" : [ "obj-1", 0 ],
					"source" : [ "obj-28", 0 ]
				}

			}
, 			{
				"patchline" : 				{
					"destination" : [ "obj-1", 0 ],
					"source" : [ "obj-29", 0 ]
				}

			}
, 			{
				"patchline" : 				{
					"destination" : [ "obj-31", 0 ],
					"source" : [ "obj-32", 0 ]
				}

			}
, 			{
				"patchline" : 				{
					"destination" : [ "obj-31", 0 ],
					"source" : [ "obj-33", 0 ]
				}

			}
, 			{
				"patchline" : 				{
					"destination" : [ "obj-31", 0 ],
					"source" : [ "obj-35", 0 ]
				}

			}
, 			{
				"patchline" : 				{
					"destination" : [ "obj-1", 0 ],
					"source" : [ "obj-4", 0 ]
				}

			}
, 			{
				"patchline" : 				{
					"destination" : [ "obj-5", 0 ],
					"source" : [ "obj-40", 0 ]
				}

			}
, 			{
				"patchline" : 				{
					"destination" : [ "obj-42", 0 ],
					"source" : [ "obj-41", 0 ]
				}

			}
, 			{
				"patchline" : 				{
					"destination" : [ "obj-5", 0 ],
					"source" : [ "obj-45", 0 ]
				}

			}
, 			{
				"patchline" : 				{
					"destination" : [ "obj-5", 0 ],
					"source" : [ "obj-47", 0 ]
				}

			}
, 			{
				"patchline" : 				{
					"destination" : [ "obj-5", 0 ],
					"source" : [ "obj-7", 0 ]
				}

			}
, 			{
				"patchline" : 				{
					"destination" : [ "obj-5", 0 ],
					"source" : [ "obj-8", 0 ]
				}

			}
 ],
		"parameters" : 		{
			"obj-41::obj-10" : [ "pictctrl[1]", "pictctrl[1]", 0 ],
			"obj-41::obj-112::obj-119" : [ "Speed high", "Speed high", 0 ],
			"obj-41::obj-112::obj-120" : [ "Rate range", "Rate range", 0 ],
			"obj-41::obj-112::obj-121" : [ "Speed low", "Speed low", 0 ],
			"obj-41::obj-112::obj-16" : [ "Playback range", "Playback range", 0 ],
			"obj-41::obj-112::obj-40" : [ "Playback controls", "Playback controls", 0 ],
			"obj-41::obj-112::obj-79" : [ "Playback position", "Playback position", 0 ],
			"obj-41::obj-112::obj-89" : [ "Reset range", "Reset range", 0 ],
			"obj-41::obj-112::obj-92" : [ "Reset speed", "Reset speed", 0 ],
			"obj-41::obj-20" : [ "pictctrl[2]", "pictctrl[1]", 0 ],
			"obj-41::obj-28" : [ "pictctrl[279]", "pictctrl[1]", 0 ],
			"obj-41::obj-40" : [ "pictctrl[283]", "pictctrl[1]", 0 ],
			"obj-41::obj-51" : [ "moviepath", "moviepath", 0 ],
			"obj-41::obj-60" : [ "pictctrl[282]", "pictctrl[1]", 0 ],
			"obj-41::obj-64" : [ "pictctrl[284]", "pictctrl[1]", 0 ],
			"obj-41::obj-81" : [ "pictctrl[281]", "pictctrl[1]", 0 ],
			"obj-41::obj-83" : [ "pictctrl[280]", "pictctrl[1]", 0 ],
			"obj-41::obj-89" : [ "moviename", "moviename", 0 ],
			"parameterbanks" : 			{

			}
,
			"inherited_shortname" : 1
		}
,
		"dependency_cache" : [ 			{
				"name" : "data-handler.maxpat",
				"bootpath" : "C74:/packages/Vizzie/patchers/utils",
				"type" : "JSON",
				"implicit" : 1
			}
, 			{
				"name" : "lo_hi_UI_control.maxpat",
				"bootpath" : "C74:/packages/Vizzie/patchers/utils",
				"type" : "JSON",
				"implicit" : 1
			}
, 			{
				"name" : "playr_controls.maxpat",
				"bootpath" : "C74:/packages/Vizzie/patchers/utils",
				"type" : "JSON",
				"implicit" : 1
			}
, 			{
				"name" : "vizzie-datatexconvert.js",
				"bootpath" : "C74:/packages/Vizzie/code",
				"type" : "TEXT",
				"implicit" : 1
			}
, 			{
				"name" : "vizzie-global.js",
				"bootpath" : "C74:/packages/Vizzie/code",
				"type" : "TEXT",
				"implicit" : 1
			}
, 			{
				"name" : "vz.playr.maxpat",
				"bootpath" : "C74:/packages/Vizzie/patchers",
				"type" : "JSON",
				"implicit" : 1
			}
, 			{
				"name" : "vzgl-blackframe.maxpat",
				"bootpath" : "C74:/packages/Vizzie/patchers/utils",
				"type" : "JSON",
				"implicit" : 1
			}
, 			{
				"name" : "vzgl-object.maxpat",
				"bootpath" : "C74:/packages/Vizzie/patchers/utils",
				"type" : "JSON",
				"implicit" : 1
			}
, 			{
				"name" : "vzgl-pwindow.maxpat",
				"bootpath" : "C74:/packages/Vizzie/patchers/utils",
				"type" : "JSON",
				"implicit" : 1
			}
 ],
		"autosave" : 0
	}

}
